# xmcd
#
# Track frame offsets:
#	150
#	14327
#	31314
#	44658
#	58021
#	71844
#	85394
#	99198
#	111880
#	125052
#	139327
#	156425
#	169965
#	186766
#	203230
#	217742
#
# Disc length: 3087 seconds
#
# Revision: 0
# Processed by: cddbd v1.5.2PL0 Copyright (c) Steve Scherf et al.
# Submitted via: dBpowerAMP V4.0
#
DISCID=ed0c0d10
DTITLE=Hennie de Bruyn and Die Kitaarkêrels - Kitaarskoffeltyd
DYEAR=1900
DGENRE=
TTITLE0=Verwoerdburg Kwêla
TTITLE1=Die Seewind Bring Heimwee
TTITLE2=Rudi Se Vastrap
TTITLE3=Poplappie Wals
TTITLE4=Lente op Die Eiland - Roos Van Mooirever
TTITLE5=Suikerrand Vastrap
TTITLE6=Marikana
TTITLE7=Stellenbosch Verlange
TTITLE8=Silwer Hare Tussen Goud
TTITLE9=Suikerbos
TTITLE10=Baby Blue
TTITLE11=Swart Turf Seties
TTITLE12=Dagbreek Wals
TTITLE13=Wil Jy Dans Carina
TTITLE14=Oor Die Golwe
TTITLE15=Tweewiel Seties
EXTD=
EXTT0=
EXTT1=
EXTT2=
EXTT3=
EXTT4=
EXTT5=
EXTT6=
EXTT7=
EXTT8=
EXTT9=
EXTT10=
EXTT11=
EXTT12=
EXTT13=
EXTT14=
EXTT15=
PLAYORDER=
